<?xml version="1.0" standalone="no"?>
<!DOCTYPE svg PUBLIC "-//W3C//DTD SVG 20010904//EN"
 "http://www.w3.org/TR/2001/REC-SVG-20010904/DTD/svg10.dtd">
<svg version="1.0" xmlns="http://www.w3.org/2000/svg"
 width="450.000000pt" height="225.000000pt" viewBox="0 0 450.000000 225.000000"
 preserveAspectRatio="xMidYMid meet">
<metadata>
Created by potrace 1.16, written by Peter Selinger 2001-2019
</metadata>
<g transform="translate(0.000000,225.000000) scale(0.100000,-0.100000)"
fill="#000000" stroke="none">
<path d="M669 2216 c-25 -18 -57 -52 -73 -75 -23 -33 -35 -41 -60 -41 -39 0
-56 -15 -56 -51 0 -19 6 -30 20 -34 38 -12 19 -39 -32 -49 -66 -12 -168 -132
-257 -301 -17 -33 -31 -66 -31 -73 0 -18 -68 -45 -102 -40 -20 3 -28 0 -28
-10 0 -8 -9 -23 -21 -33 -19 -16 -19 -19 -5 -48 12 -21 13 -32 5 -37 -15 -9
27 -33 58 -34 12 0 25 -5 28 -10 4 -6 11 -8 16 -5 5 4 9 0 9 -7 1 -19 85 78
112 128 33 63 43 61 45 -10 1 -33 5 -81 8 -106 4 -25 6 -54 6 -65 -1 -11 -3
-67 -5 -125 -1 -58 -6 -130 -10 -160 -9 -62 -47 -136 -75 -145 -25 -8 -33 -31
-16 -45 10 -8 28 -6 72 10 32 11 62 21 67 23 14 3 45 -102 45 -155 1 -44 3
-48 26 -48 14 0 25 -3 25 -7 0 -5 18 -32 41 -61 22 -30 34 -51 27 -47 -7 4 13
-19 45 -52 l58 -60 -14 -35 c-8 -19 -29 -51 -47 -71 -33 -38 -35 -67 -5 -67 9
0 47 20 85 44 l68 44 33 -20 c19 -11 36 -23 39 -27 3 -3 11 -7 19 -9 47 -10
183 -154 218 -230 31 -66 52 -66 70 0 l14 46 38 -21 c49 -27 75 -18 66 23 -5
23 -3 30 9 30 11 0 16 10 16 34 l0 33 93 7 c52 3 132 16 178 27 96 24 249 93
321 144 27 20 53 33 58 30 5 -3 21 6 37 21 15 14 21 22 13 18 -8 -4 7 15 33
42 189 194 294 515 253 769 -15 94 -41 198 -57 227 -18 33 -29 18 -14 -18 21
-51 17 -68 -4 -19 -24 53 -36 95 -22 75 9 -12 11 -11 11 9 0 13 -3 22 -6 18
-11 -11 -144 155 -144 180 0 6 -9 18 -20 28 -11 10 -20 15 -20 10 0 -4 -19 10
-43 32 -23 21 -57 48 -75 58 -17 11 -32 22 -32 26 0 8 -181 89 -199 89 -6 0
-11 4 -11 9 0 9 -186 41 -239 41 -17 0 -31 2 -31 5 0 3 9 25 21 50 22 47 18
70 -12 62 -17 -5 -19 1 -19 44 0 44 -2 49 -22 49 -25 0 -80 -30 -116 -63 -17
-16 -25 -18 -34 -9 -15 15 -51 15 -66 0 -16 -16 -15 -38 4 -59 20 -23 10 -39
-25 -39 -15 0 -32 -5 -39 -12 -14 -14 -16 -78 -2 -78 6 0 10 -5 10 -11 0 -6
-12 -1 -26 10 -22 17 -41 21 -105 21 l-79 0 0 79 c0 44 -4 83 -10 86 -5 3 -10
22 -10 41 0 31 -3 34 -29 34 -17 0 -46 -14 -72 -34z m81 -52 c0 -44 3 -63 11
-59 7 5 9 -7 5 -39 -3 -25 -9 -67 -12 -93 -3 -26 -14 -69 -25 -95 -10 -27 -19
-70 -19 -96 -1 -45 -3 -49 -61 -94 -58 -45 -62 -47 -88 -34 -56 29 -90 94 -91
174 0 45 2 47 31 32 17 -10 19 -7 19 26 0 20 5 55 12 76 11 38 13 40 46 34 28
-4 33 -2 28 10 -3 9 -6 20 -6 25 0 5 -9 9 -20 9 -18 0 -18 4 11 50 33 53 123
140 145 140 11 0 14 -16 14 -66z m511 -6 c-4 -38 -5 -68 -2 -68 3 0 15 10 28
22 l23 22 -25 -62 c-14 -34 -25 -67 -25 -74 0 -6 -12 -25 -27 -40 -21 -22 -23
-28 -10 -28 20 0 21 -4 6 -33 -17 -32 -17 -32 -40 -4 -21 28 -57 35 -76 16 -7
-7 -21 -1 -47 21 -42 38 -47 60 -11 60 16 0 25 6 25 15 0 8 -7 15 -15 15 -14
0 -14 3 0 31 9 16 23 33 31 36 7 3 14 11 14 17 0 18 59 71 110 100 24 14 45
24 46 23 1 -1 -1 -32 -5 -69z m-166 -520 c17 -6 59 -14 95 -17 58 -7 62 -9 40
-18 -31 -13 -15 -21 50 -25 l45 -3 -40 -27 c-45 -32 -55 -34 -55 -14 0 8 -4
17 -9 20 -5 4 -7 -3 -4 -15 5 -19 20 -28 93 -57 l25 -10 -30 -12 c-16 -6 -44
-9 -62 -5 -38 7 -40 2 -13 -42 23 -38 22 -38 -27 -18 -37 16 -71 20 -59 8 4
-5 11 -8 15 -8 3 0 24 -19 46 -43 21 -24 59 -54 84 -67 43 -21 155 -51 175
-46 35 9 77 -51 58 -85 -13 -23 -5 -50 30 -103 29 -44 29 -44 12 -77 -34 -62
-50 -77 -75 -71 -22 6 -24 11 -21 51 2 26 -2 57 -11 74 -12 25 -12 33 -1 53 7
13 13 36 14 51 0 15 5 30 11 34 8 4 9 -1 5 -17 l-7 -24 20 24 c25 28 26 40 6
48 -24 9 -53 -24 -60 -68 -7 -41 -19 -57 -31 -38 -3 6 -34 24 -68 40 -59 28
-61 28 -80 10 -27 -28 -11 -44 38 -38 41 4 106 -23 106 -44 0 -5 7 -9 15 -9
26 0 20 -96 -7 -123 -32 -32 -152 -97 -178 -97 -33 0 -84 58 -108 123 -12 32
-22 64 -22 72 0 17 -6 20 -45 28 -16 4 -24 4 -17 1 11 -5 -21 -19 -173 -73
-16 -5 -50 -15 -75 -20 l-45 -10 42 5 43 6 -69 -69 c-101 -101 -135 -177 -149
-338 l-7 -80 -58 70 c-33 39 -72 94 -89 123 -24 42 -33 50 -44 41 -12 -9 -14
-4 -14 29 0 22 -9 68 -19 102 -21 65 -14 110 16 110 17 0 17 15 -2 30 -12 10
-15 10 -15 -3 0 -29 -59 -85 -105 -101 l-45 -15 30 38 c22 27 35 59 46 117 9
43 24 87 33 97 9 11 46 37 83 58 36 21 81 51 99 66 27 23 32 25 24 8 -8 -20
-14 -305 -6 -305 3 0 18 12 33 27 l28 27 0 -29 c0 -47 18 -15 22 39 3 56 -10
68 -33 29 l-17 -26 -12 71 c-11 58 -11 86 0 145 7 39 18 79 25 87 7 8 23 35
35 60 12 25 38 62 58 82 32 34 37 36 56 22 11 -7 35 -14 53 -14 32 0 33 0 31
-45 -2 -43 -4 -45 -33 -45 -16 0 -46 4 -65 10 l-35 9 30 -26 c20 -17 30 -37
31 -57 2 -34 43 -76 75 -76 40 0 78 28 83 63 14 85 15 82 -31 81 l-42 -1 20
29 c21 29 47 35 80 18 15 -8 19 -7 19 4 0 8 6 17 13 19 7 3 5 6 -5 6 -10 1
-18 -3 -18 -8 0 -5 -10 -7 -22 -3 -21 5 -21 6 6 29 15 12 23 23 18 23 -13 0
-99 -67 -105 -82 -3 -7 -6 -2 -6 12 -1 14 5 35 13 46 14 20 13 20 -44 16 -31
-2 -60 0 -63 5 -3 5 6 10 21 11 14 1 44 14 67 29 39 26 39 27 15 33 -23 5 -21
7 23 34 112 65 143 71 222 44z m-891 -141 l-16 -32 26 30 c37 44 31 18 -8 -36
-35 -48 -76 -70 -76 -42 0 13 -3 13 -15 3 -13 -10 -20 -8 -41 14 -23 22 -24
26 -9 26 17 0 17 1 -1 22 -16 18 -17 21 -2 15 13 -4 15 -2 11 10 -4 10 -2 14
4 10 6 -4 13 -4 15 1 1 4 21 15 43 23 35 13 43 14 62 1 21 -13 22 -15 7 -45z
m920 -593 c30 -58 85 -104 121 -104 11 1 31 7 45 15 14 8 49 14 78 15 54 0 98
16 121 44 7 9 17 13 22 11 4 -3 16 6 25 20 19 29 29 32 38 8 4 -11 -4 -28 -26
-50 -22 -23 -27 -32 -14 -27 17 7 19 4 13 -31 -8 -48 -52 -131 -68 -127 -16 4
-29 -17 -29 -47 0 -19 -3 -21 -14 -12 -13 11 -13 5 -2 -43 7 -30 22 -70 34
-90 12 -20 19 -36 16 -36 -14 0 -52 26 -85 56 l-35 34 -18 -80 c-10 -44 -16
-90 -13 -102 5 -20 2 -19 -23 10 -17 18 -30 44 -31 60 0 19 -9 3 -30 -53 -17
-44 -37 -96 -44 -115 -8 -19 -14 -46 -15 -59 0 -17 -4 -22 -16 -17 -14 5 -16
1 -10 -34 8 -49 -8 -53 -47 -12 -20 21 -27 39 -28 73 l-1 44 -9 -55 c-5 -30
-14 -76 -20 -102 l-11 -48 -24 49 c-30 60 -124 158 -221 230 -40 30 -73 57
-73 61 0 4 31 38 70 76 42 41 76 86 86 110 18 48 16 142 -6 215 -7 25 -10 54
-6 64 6 15 10 11 27 -23 24 -49 33 -51 55 -17 13 20 22 23 47 19 l32 -5 -34
16 c-31 14 -36 14 -52 -1 -17 -15 -19 -15 -31 11 -8 19 -9 31 -2 43 14 22 110
61 149 62 26 0 34 -7 59 -56z"/>
<path d="M2330 1580 c0 -7 325 -10 955 -10 630 0 955 3 955 10 0 7 -325 10
-955 10 -630 0 -955 -3 -955 -10z"/>
<path d="M2443 1473 c-7 -2 -13 -10 -13 -16 0 -6 35 -106 77 -222 73 -199 77
-215 82 -315 l6 -105 39 -3 c24 -2 42 2 47 10 5 7 9 55 9 107 0 92 2 98 76
302 42 114 74 216 72 226 -3 19 -36 28 -72 19 -19 -5 -31 -29 -70 -138 -27
-73 -51 -137 -56 -141 -4 -5 -29 49 -55 120 -61 166 -59 163 -98 162 -18 0
-38 -3 -44 -6z"/>
<path d="M3112 1467 c-17 -21 -175 -624 -168 -642 4 -12 16 -15 48 -13 42 3
42 3 58 58 l16 55 94 0 94 0 16 -55 16 -55 44 0 c34 0 45 4 48 17 4 22 -155
617 -170 635 -14 17 -82 17 -96 0z"/>
<path d="M3487 1473 c-4 -3 -7 -15 -7 -26 0 -28 118 -586 130 -614 8 -19 17
-23 54 -23 25 0 47 4 50 9 6 9 86 378 86 395 0 31 14 -23 51 -194 22 -107 43
-198 46 -202 7 -13 90 -9 100 5 14 17 135 601 131 629 -2 18 -10 24 -39 26
-21 2 -40 -2 -46 -10 -6 -7 -28 -94 -49 -193 -20 -99 -39 -182 -41 -184 -8
-11 -16 18 -53 188 -21 100 -42 186 -45 191 -8 13 -92 13 -99 1 -4 -5 -22 -85
-42 -178 -42 -201 -44 -207 -54 -197 -4 5 -24 88 -45 184 -20 96 -41 181 -47
188 -11 13 -70 17 -81 5z"/>
<path d="M2330 740 c0 -7 325 -10 955 -10 630 0 955 3 955 10 0 7 -325 10
-955 10 -630 0 -955 -3 -955 -10z"/>
</g>
</svg>
